#!OML:ASF X:\2005_08_12_Meinard\c3d\meinard.ASF
:FULLY-SPECIFIED
:DEGREES
1422
root -2.99354 17.7682 -5.96079 -29.3819 -62.3883 18.0428
lowerback 32.7955 -1.37475 1.64202
upperback 0.947116 -1.89147 -3.06261
thorax -16.2216 -1.14092 -3.42852
lowerneck 5.94144 -20.1593 6.5583
upperneck -15.3157 -25.2449 11.3635
head -4.93087 -13.4891 3.95299
rclavicle 6.36111e-015 3.45885e-014
rhumerus 14.564 29.5253 47.0546
rradius 32.5966
rwrist -106.535
rhand -41.6837 -38.6669
rfingers 7.12502
rthumb -14.5904 -68.1337
lclavicle 6.36111e-015 3.45885e-014
lhumerus 33.0083 136.971 76.4568
lradius 11.3816
lwrist -133.11
lhand -10.7549 -14.1962
lfingers 7.12502
lthumb 15.2566 15.2212
rfemur 5.05667 -13.9478 11.0777
rtibia 28.8513
rfoot -10.3635 8.17092
rtoes -1.77469
lfemur 11.0364 -5.72289 -10.9358
ltibia 24.8671
lfoot 19.1133 18.4248
ltoes -22.5058
1423
root -2.99545 17.7535 -5.96463 -29.5152 -62.4785 18.0889
lowerback 32.8487 -1.386 1.68813
upperback 0.979418 -1.89461 -3.08924
thorax -16.2095 -1.14696 -3.48074
lowerneck 6.00146 -20.1776 6.30285
upperneck -15.1621 -25.2948 11.406
head -4.85107 -13.5006 3.97928
rclavicle -5.05907e-014 -4.05521e-014
rhumerus 14.0542 26.5673 45.3615
rradius 32.49
rwrist -100.555
rhand -41.0212 -38.571
rfingers 7.12502
rthumb -13.9521 -68.0829
lclavicle -5.05907e-014 -4.05521e-014
lhumerus 32.0438 138.217 75.1037
lradius 11.5431
lwrist -134.955
lhand -10.7302 -14.0608
lfingers 7.12502
lthumb 15.2804 15.3548
rfemur 4.97829 -14.0474 11.0578
rtibia 29.1666
rfoot -10.5398 8.36034
rtoes -1.86516
lfemur 11.1798 -5.5997 -10.9295
ltibia 24.8673
lfoot 18.9355 18.4748
ltoes -22.6622
1424
root -2.99647 17.7359 -5.96716 -29.6828 -62.6056 18.1653
lowerback 32.8689 -1.39541 1.74501
upperback 1.02192 -1.8917 -3.11733
thorax -16.1706 -1.151 -3.54329
lowerneck 6.15946 -20.1782 6.06559
upperneck -15.0905 -25.3016 11.4814
head -4.81217 -13.4982 4.02897
rclavicle 1.82882e-014 3.22031e-014
rhumerus 13.9892 24.3665 44.3036
rradius 32.5027
rwrist -94.9547
rhand -40.3356 -38.0773
rfingers 7.12502
rthumb -13.2913 -67.6335
lclavicle 1.82882e-014 3.22031e-014
lhumerus 31.1278 139.464 73.8161
lradius 11.7073
lwrist -136.802
lhand -10.8174 -13.946
lfingers 7.12502
lthumb 15.1963 15.476
rfemur 4.88898 -14.1186 11.0311
rtibia 29.5047
rfoot -10.7326 8.56376
rtoes -1.88907
lfemur 11.3715 -5.51534 -10.944
ltibia 24.8733
lfoot 18.5465 18.6759
ltoes -22.7066
1425
root -2.99565 17.7156 -5.96953 -29.8859 -62.7538 18.259
lowerback 32.8901 -1.40961 1.81509
upperback 1.07901 -1.89018 -3.14463
thorax -16.1151 -1.15637 -3.61131
lowerneck 6.31289 -20.1708 5.86083
upperneck -15.0131 -25.2986 11.5225
head -4.77982 -13.4898 4.06616
rclavicle -8.84592e-015 -1.11319e-014
rhumerus 14.3004 22.8345 43.8032
rradius 32.5526
rwrist -89.8602
rhand -39.6611 -37.2713
rfingers 7.12502
rthumb -12.6411 -66.8688
lclavicle -8.84592e-015 -1.11319e-014
lhumerus 30.3707 140.499 72.7618
lradius 11.8306
lwrist -138.305
lhand -10.9146 -13.8994
lfingers 7.12502
lthumb 15.1028 15.5296
rfemur 4.80268 -14.174 11.0022
rtibia 29.8656
rfoot -10.9602 8.80826
rtoes -1.94542
lfemur 11.6003 -5.45375 -10.9646
ltibia 24.88
lfoot 18.039 18.9626
ltoes -22.3521
1426
root -2.99482 17.6939 -5.97133 -30.054 -62.9214 18.3119
lowerback 32.8877 -1.43895 1.9521
upperback 1.14318 -1.88652 -3.19061
thorax -16.0441 -1.16622 -3.73769
lowerneck 6.54095 -20.1585 5.63727
upperneck -15.0003 -25.2733 11.6466
head -4.76701 -13.4789 4.13904
rclavicle 7.15625e-015 2.94201e-014
rhumerus 14.6751 20.9669 43.1119
rradius 32.5542
rwrist -84.1818
rhand -38.9304 -36.3825
rfingers 7.12502
rthumb -11.9365 -66.0222
lclavicle 7.15625e-015 2.94201e-014
lhumerus 29.8386 141.127 72.0508
lradius 11.9086
lwrist -139.309
lhand -11.0318 -13.789
lfingers 7.12502
lthumb 14.9899 15.6485
rfemur 4.71145 -14.2006 11.0092
rtibia 30.2373
rfoot -11.2188 9.01921
rtoes -1.96364
lfemur 11.8501 -5.42043 -10.9646
ltibia 24.8894
lfoot 17.4884 19.2115
ltoes -22.0307
1427
root -2.99266 17.6707 -5.9726 -30.2979 -63.0973 18.4305
lowerback 32.8903 -1.46311 2.04424
upperback 1.21233 -1.89038 -3.22005
thorax -15.9675 -1.17517 -3.81775
lowerneck 6.73588 -20.1335 5.46244
upperneck -14.9576 -25.2383 11.6893
head -4.75713 -13.4581 4.18098
rclavicle 2.13694e-015 -1.59028e-015
rhumerus 15.1068 18.1923 41.9287
rradius 32.3972
rwrist -77.4314
rhand -37.9905 -35.457
rfingers 7.12502
rthumb -11.0301 -65.1471
lclavicle 2.13694e-015 -1.59028e-015
lhumerus 29.4199 141.634 71.5308
lradius 11.9512
lwrist -140.092
lhand -11.1702 -13.7556
lfingers 7.12502
lthumb 14.8565 15.6917
rfemur 4.6311 -14.1859 10.9881
rtibia 30.62
rfoot -11.4806 9.23717
rtoes -1.93436
lfemur 12.1308 -5.35964 -10.9937
ltibia 24.8918
lfoot 16.9562 19.3644
ltoes -21.8798
1428
root -2.99011 17.6473 -5.97296 -30.5095 -63.274 18.5372
lowerback 32.8483 -1.49374 2.15626
upperback 1.27805 -1.89581 -3.25324
thorax -15.8768 -1.18605 -3.91269
lowerneck 6.95192 -20.1134 5.34781
upperneck -14.9432 -25.2013 11.718
head -4.76936 -13.439 4.2196
rclavicle -1.65488e-014 1.94809e-014
rhumerus 15.6475 14.7682 40.3358
rradius 32.1041
rwrist -69.9105
rhand -36.9074 -34.4683
rfingers 7.12502
rthumb -9.98534 -64.2115
lclavicle -1.65488e-014 1.94809e-014
lhumerus 28.9262 142.16 70.967
lradius 12.0444
lwrist -140.844
lhand -11.2982 -13.8187
lfingers 7.12502
lthumb 14.7332 15.6377
rfemur 4.5228 -14.1881 10.9759
rtibia 30.9939
rfoot -11.7622 9.4505
rtoes -1.88228
lfemur 12.3909 -5.26213 -11.0021
ltibia 24.8996
lfoot 16.3935 19.4608
ltoes -21.8544
1429
root -2.98676 17.6237 -5.97296 -30.7874 -63.4572 18.7029
lowerback 32.8147 -1.51932 2.24327
upperback 1.34875 -1.90474 -3.28802
thorax -15.7835 -1.19661 -3.99401
lowerneck 7.12528 -20.0774 5.26256
upperneck -14.9185 -25.1458 11.731
head -4.77826 -13.4103 4.24539
rclavicle -7.42958e-014 2.26615e-014
rhumerus 16.3435 10.7229 38.3444
rradius 31.772
rwrist -61.7869
rhand -35.6187 -33.3583
rfingers 7.12502
rthumb -8.74181 -63.1573
lclavicle -7.42958e-014 2.26615e-014
lhumerus 28.5617 142.438 70.6439
lradius 12.1153
lwrist -141.339
lhand -11.4707 -13.9115
lfingers 7.12502
lthumb 14.5671 15.557
rfemur 4.44185 -14.1314 10.9486
rtibia 31.3503
rfoot -12.0472 9.63309
rtoes -1.84767
lfemur 12.6805 -5.22461 -11.0647
ltibia 24.9075
lfoot 15.7799 19.6505
ltoes -21.6702
1430
root -2.9832 17.6004 -5.97197 -31.0513 -63.648 18.8492
lowerback 32.7956 -1.57276 2.23253
upperback 1.40714 -1.97669 -3.2682
thorax -15.7104 -1.22572 -3.93415
lowerneck 7.23206 -19.9876 5.33415
upperneck -14.8539 -25.0245 11.5621
head -4.81097 -13.3409 4.19902
rclavicle -2.36057e-014 -2.14687e-014
rhumerus 17.4741 6.25693 36.0698
rradius 31.4281
rwrist -53.4274
rhand -34.2063 -32.0954
rfingers 7.12502
rthumb -7.37874 -61.9467
lclavicle -2.36057e-014 -2.14687e-014
lhumerus 28.5072 142.479 70.6964
lradius 12.1233
lwrist -141.331
lhand -11.6341 -13.9734
lfingers 7.12502
lthumb 14.4096 15.5064
rfemur 4.37553 -14.1043 10.923
rtibia 31.6787
rfoot -12.3157 9.83557
rtoes -1.82539
lfemur 12.9642 -5.17466 -11.1184
ltibia 24.9153
lfoot 15.2106 19.7677
ltoes -21.6429
1431
root -2.9799 17.5784 -5.9714 -31.2774 -63.8527 18.9404
lowerback 32.7836 -1.62872 2.25491
upperback 1.47319 -2.03847 -3.24184
thorax -15.631 -1.25244 -3.88954
lowerneck 7.24499 -19.9007 5.43886
upperneck -14.7435 -24.9174 11.3623
head -4.82186 -13.2753 4.12772
rclavicle 2.23633e-014 -3.97569e-016
rhumerus 18.8698 1.37448 33.3363
rradius 31.1283
rwrist -44.7125
rhand -32.6506 -30.6102
rfingers 7.12502
rthumb -5.87685 -60.5087
lclavicle 2.23633e-014 -3.97569e-016
lhumerus 28.6947 142.024 71.1503
lradius 12.0215
lwrist -140.754
lhand -11.7937 -14.0061
lfingers 7.12502
lthumb 14.2558 15.4846
rfemur 4.34872 -14.0389 10.9407
rtibia 31.9747
rfoot -12.5744 9.99499
rtoes -1.79363
lfemur 13.2616 -5.09682 -11.1244
ltibia 24.9053
lfoot 14.68 19.8461
ltoes -21.7043
1432
root -2.97675 17.5584 -5.97021 -31.516 -64.0335 19.0554
lowerback 32.7626 -1.68905 2.26045
upperback 1.53559 -2.11322 -3.22111
thorax -15.5532 -1.28399 -3.83666
lowerneck 7.21908 -19.8182 5.63976
upperneck -14.6423 -24.8125 11.1172
head -4.84725 -13.2114 4.03336
rclavicle 3.77194e-014 -1.98785e-014
rhumerus 20.6583 -3.63205 30.1896
rradius 30.8863
rwrist -35.974
rhand -31.0139 -28.8406
rfingers 7.12502
rthumb -4.29653 -58.777
lclavicle 3.77194e-014 -1.98785e-014
lhumerus 28.9878 141.345 71.8019
lradius 11.8924
lwrist -139.956
lhand -11.9261 -14.0334
lfingers 7.12502
lthumb 14.1282 15.4662
rfemur 4.33834 -14.0035 10.9345
rtibia 32.2307
rfoot -12.8147 10.1522
rtoes -1.82641
lfemur 13.5303 -4.98684 -11.1354
ltibia 24.8904
lfoot 14.2124 19.8378
ltoes -21.8706
